<svg xmlns="http://www.w3.org/2000/svg" xmlns:xlink="http://www.w3.org/1999/xlink" width="500" zoomAndPan="magnify" viewBox="0 0 375 374.999991" height="500" preserveAspectRatio="xMidYMid meet" version="1.0"><defs><clipPath id="89fdc363d4"><path d="M 20.015625 47.234375 L 355 47.234375 L 355 327.734375 L 20.015625 327.734375 Z M 20.015625 47.234375 " clip-rule="nonzero"/></clipPath></defs><g clip-path="url(#89fdc363d4)"><path fill="#45a7f7" d="M 341.675781 92.695312 C 340.207031 89.226562 338.628906 85.816406 336.945312 82.472656 C 336.945312 82.46875 336.941406 82.464844 336.941406 82.460938 C 336.136719 80.648438 335.292969 79.058594 334.425781 77.664062 C 334.421875 77.660156 334.421875 77.652344 334.417969 77.648438 C 334.394531 77.605469 334.371094 77.5625 334.347656 77.515625 C 334.335938 77.503906 334.328125 77.496094 334.316406 77.484375 C 334.3125 77.480469 334.3125 77.480469 334.308594 77.476562 C 327.761719 67.0625 320 67.695312 318.121094 68.027344 C 308.441406 67.851562 304.097656 84.433594 304.097656 84.433594 C 296.792969 119.300781 275.648438 124.515625 275.320312 124.59375 C 291.046875 111.199219 289.371094 77.738281 270.292969 77.738281 C 254.503906 77.738281 253.617188 97.457031 253.78125 104.25 C 253.449219 108.421875 252.773438 114.09375 251.394531 119.351562 C 243.820312 144.4375 222.894531 153.871094 205.464844 157.261719 C 198.125 158.34375 185.261719 159.285156 172.0625 155.738281 C 122.777344 136.675781 94.914062 180.152344 94.914062 180.152344 C 68.09375 221.171875 41.882812 210.742188 27.621094 199.554688 C 27.613281 199.546875 27.601562 199.542969 27.59375 199.535156 C 27.402344 199.382812 27.210938 199.234375 27.023438 199.078125 C 25.75 198.054688 24.574219 197.027344 23.511719 196.039062 C 23.523438 196.097656 23.535156 196.148438 23.546875 196.207031 C 22.425781 195.175781 21.214844 193.972656 20.015625 192.609375 C 22.234375 203.476562 25.53125 214.105469 29.890625 224.410156 C 38.414062 244.558594 50.609375 262.652344 66.148438 278.1875 C 81.6875 293.726562 99.78125 305.925781 119.925781 314.445312 C 140.785156 323.269531 162.945312 327.742188 185.785156 327.742188 C 208.621094 327.742188 230.78125 323.269531 251.640625 314.445312 C 271.785156 305.925781 289.878906 293.726562 305.417969 278.1875 C 320.957031 262.652344 333.15625 244.558594 341.675781 224.410156 C 350.496094 203.550781 354.972656 181.394531 354.972656 158.554688 C 354.972656 135.714844 350.496094 113.558594 341.675781 92.695312 Z M 301.851562 120.445312 C 307.644531 120.445312 312.339844 125.140625 312.339844 130.933594 C 312.339844 136.726562 307.644531 141.421875 301.851562 141.421875 C 296.058594 141.421875 291.363281 136.726562 291.363281 130.933594 C 291.363281 125.140625 296.058594 120.445312 301.851562 120.445312 Z M 328.148438 239.570312 C 328.148438 239.570312 328.148438 239.574219 328.148438 239.574219 C 316.820312 251.96875 295.976562 270.011719 274.628906 264.148438 C 274.628906 264.148438 311.894531 240.273438 294.265625 228.667969 C 276.636719 217.066406 268.382812 266.601562 200.992188 256.113281 C 200.992188 256.113281 158.820312 244.734375 139.183594 258.121094 C 123.527344 268.796875 102.195312 280.605469 76.660156 280.65625 C 62.25 267.761719 50.125 252.363281 40.984375 235.148438 C 50.527344 239.328125 64.6875 241.796875 82.953125 234.691406 C 119.101562 220.636719 109.953125 185.601562 177.339844 208.585938 C 207.800781 218.976562 231.332031 208.164062 247.972656 193.191406 C 249.199219 192.089844 250.386719 190.96875 251.535156 189.824219 C 253.378906 188.003906 255.125 186.136719 256.773438 184.261719 C 267.121094 171.613281 277.082031 150.71875 277.082031 150.71875 L 277.121094 150.734375 C 278.433594 146.625 282.285156 143.652344 286.828125 143.652344 C 290.675781 143.652344 294.023438 145.785156 295.757812 148.933594 C 296.078125 149.511719 296.34375 150.125 296.546875 150.769531 C 296.804688 151.585938 296.960938 152.449219 297.003906 153.339844 C 297.007812 153.34375 297.007812 153.347656 297.007812 153.355469 C 297.445312 157.511719 296.871094 164.484375 291.679688 174.179688 C 285.144531 188.027344 274.40625 200.777344 274.40625 200.777344 C 274.40625 200.777344 297.835938 197.207031 310.109375 173.777344 C 319.921875 155.042969 337.007812 142.445312 349.164062 146.359375 C 349.464844 150.386719 349.617188 154.453125 349.617188 158.554688 C 349.617188 188.003906 341.804688 215.664062 328.148438 239.570312 Z M 316.355469 215.726562 C 316.355469 221.519531 311.660156 226.214844 305.867188 226.214844 C 300.078125 226.214844 295.382812 221.519531 295.382812 215.726562 C 295.382812 209.933594 300.078125 205.238281 305.867188 205.238281 C 311.660156 205.238281 316.355469 209.933594 316.355469 215.726562 Z M 261.910156 57.742188 C 261.910156 51.949219 266.605469 47.253906 272.398438 47.253906 C 278.191406 47.253906 282.886719 51.949219 282.886719 57.742188 C 282.886719 63.535156 278.191406 68.230469 272.398438 68.230469 C 266.605469 68.230469 261.910156 63.535156 261.910156 57.742188 Z M 261.910156 57.742188 " fill-opacity="1" fill-rule="nonzero"/></g></svg>